<svg width="512" height="512" viewBox="0 0 512 512" fill="none" xmlns="http://www.w3.org/2000/svg">
<g clip-path="url(#clip0_1_4)">
<path d="M256 51.2C205.368 51.2 155.873 63.2113 113.774 85.715C71.675 108.219 38.8628 140.204 19.4868 177.626C0.110722 215.049 -4.95893 256.227 4.91889 295.955C14.7967 335.682 39.1783 372.174 74.9806 400.815C110.783 429.457 156.398 448.963 206.057 456.865C255.716 464.767 307.189 460.711 353.967 445.211C400.745 429.71 440.727 403.46 468.856 369.781C496.986 336.102 512 296.506 512 256C512 201.684 485.029 149.592 437.019 111.185C389.01 72.7771 323.895 51.2 256 51.2ZM132.037 294.944C131.35 300.146 128.75 305.069 124.566 309.09C120.381 313.111 114.801 316.048 108.529 317.531C102.258 319.014 95.5777 318.976 89.3333 317.422C83.0889 315.868 77.561 312.867 73.4485 308.799C69.3361 304.731 66.8239 299.779 66.2297 294.569C65.6355 289.359 66.9859 284.125 70.1102 279.529C73.2344 274.933 77.9923 271.181 83.7819 268.749C89.5715 266.316 96.1329 265.311 102.636 265.862C111.355 266.6 119.351 270.079 124.864 275.532C130.378 280.986 132.958 287.968 132.037 294.944ZM383.685 313.722V244.2C383.685 238.639 381.617 234.26 377.541 231.093C373.465 227.927 367.695 226.131 360.507 226.131C352.63 225.889 344.954 228.155 339.161 232.432C336.49 234.64 334.413 237.262 333.058 240.137C331.703 243.012 331.099 246.078 331.284 249.147V313.738H268.938V244.2C269.104 241.792 268.64 239.382 267.576 237.125C266.511 234.868 264.869 232.813 262.754 231.093C258.685 227.785 253.02 226.131 245.76 226.131C236.833 226.131 229.711 228.231 224.394 232.432C221.723 234.64 219.646 237.262 218.291 240.137C216.936 243.012 216.332 246.078 216.517 249.147V313.738H154.171V197.238H212.677L214.646 211.889C226.96 199.696 244.46 193.604 267.146 193.615C293.192 193.615 311.65 200.247 322.521 213.512C335.819 200.247 355.131 193.615 380.455 193.615C400.738 193.615 416.67 197.448 428.249 205.115C440.064 212.803 445.972 223.416 445.972 236.954V313.706L383.685 313.722Z" fill="black"/>
</g>
<defs>
<clipPath id="clip0_1_4">
<rect width="512" height="512" fill="white"/>
</clipPath>
</defs>
</svg>
