<svg xmlns="http://www.w3.org/2000/svg" viewBox="0 0 24 24">
  <path d="M11.9 9l2.9 2.7v-.1c0-1.4-1.2-2.6-2.7-2.6h-.2zm-4 .7L9.3 11c0 .2-.1.4-.1.6 0 1.4 1.2 2.6 2.7 2.6.2 0 .4 0 .6-.1l1.4 1.3c-.6.3-1.3.5-2 .5-2.5 0-4.5-1.9-4.5-4.3.1-.7.2-1.4.5-1.9zm-5-4.8l2.1 2 .4.4C3.9 8.4 2.7 9.8 2 11.6c1.6 3.8 5.5 6.5 10 6.5 1.4 0 2.8-.3 4-.7l.4.4 2.7 2.5 1.2-1.1L4.1 3.8 2.9 4.9zM12 7.2c2.5 0 4.5 1.9 4.5 4.3 0 .6-.1 1.1-.3 1.6l2.7 2.5c1.4-1.1 2.5-2.5 3.1-4.1C20.4 7.7 16.5 5 12 5c-1.3 0-2.5.2-3.6.6l2 1.9c.5-.2 1-.3 1.6-.3z"/>
</svg>
